<?xml version="1.0" standalone="no"?>
<!DOCTYPE svg PUBLIC "-//W3C//DTD SVG 20010904//EN"
 "http://www.w3.org/TR/2001/REC-SVG-20010904/DTD/svg10.dtd">
<svg version="1.0" xmlns="http://www.w3.org/2000/svg"
 width="1818.000000pt" height="522.000000pt" viewBox="0 0 1818.000000 522.000000"
 preserveAspectRatio="xMidYMid meet">
<metadata>
Created by potrace 1.10, written by Peter Selinger 2001-2011
</metadata>
<g transform="translate(0.000000,522.000000) scale(0.100000,-0.100000)"
fill="#000000" stroke="none">
<path d="M2697 4442 l-88 -3 -44 -92 c-23 -51 -69 -153 -100 -227 -31 -73 -61
-141 -65 -149 -10 -19 -33 -70 -88 -196 -63 -143 -126 -284 -167 -370 -95
-204 -115 -246 -115 -251 0 -18 -64 -134 -74 -134 -7 0 -39 60 -71 133 -69
158 -90 204 -144 320 -23 49 -41 90 -41 93 0 4 -41 94 -91 201 -16 35 -29 65
-29 67 0 3 -18 44 -41 93 -22 48 -49 106 -59 128 -9 22 -37 85 -61 139 -24 55
-60 131 -79 170 l-35 71 -100 3 c-55 1 -106 -2 -114 -7 -12 -8 -10 -21 16 -78
17 -37 55 -120 83 -183 29 -63 66 -144 82 -180 32 -70 90 -200 119 -265 9 -22
36 -80 58 -128 23 -49 41 -90 41 -92 0 -4 151 -347 195 -440 18 -38 56 -126
85 -195 29 -69 58 -131 63 -137 6 -9 43 -13 117 -13 l107 0 27 58 c16 31 36
75 46 97 10 22 32 70 49 107 17 37 31 70 31 73 0 2 15 37 34 77 19 40 57 125
86 188 28 63 62 138 75 165 12 28 46 102 75 165 28 63 63 139 77 169 14 30 54
120 88 200 34 80 73 169 85 196 13 28 29 64 35 80 7 17 20 47 29 68 19 45 21
74 4 78 -7 2 -53 3 -101 1z"/>
<path d="M10296 4376 c-14 -30 -50 -110 -80 -178 -108 -246 -138 -315 -187
-416 -27 -57 -49 -106 -49 -108 0 -2 -18 -42 -40 -88 -21 -46 -50 -111 -64
-143 -13 -32 -45 -103 -71 -158 -26 -55 -65 -138 -87 -185 -21 -47 -45 -98
-53 -115 -90 -190 -114 -248 -110 -256 4 -5 53 -9 109 -9 l103 0 94 218 94
217 467 3 468 2 30 -64 c16 -36 30 -68 30 -70 0 -3 15 -38 34 -78 18 -40 39
-90 45 -110 7 -21 17 -40 22 -43 5 -4 9 -14 9 -24 0 -9 6 -26 14 -37 13 -17
25 -19 113 -16 54 2 101 7 106 11 4 4 -6 35 -23 69 -16 34 -30 67 -30 72 0 5
-9 26 -19 47 -18 35 -43 89 -108 233 -14 30 -45 97 -69 148 -24 51 -44 95 -44
97 0 4 -81 181 -160 350 -23 50 -50 108 -60 130 -10 22 -46 98 -79 169 -34 70
-61 130 -61 132 0 2 -27 60 -60 129 l-59 125 -100 0 -100 0 -25 -54z m161
-256 c3 -14 19 -50 35 -82 15 -31 28 -59 28 -62 0 -5 32 -74 127 -276 25 -52
56 -122 70 -155 14 -33 38 -88 55 -123 46 -100 66 -94 -354 -90 -395 3 -395 3
-366 61 25 48 93 197 124 269 14 35 44 104 66 153 22 50 46 104 54 120 7 17
27 60 43 98 17 37 31 72 31 78 0 7 10 27 22 47 l21 34 19 -23 c10 -13 21 -35
25 -49z"/>
<path d="M8157 4303 c-4 -3 -7 -60 -7 -125 0 -66 -5 -128 -10 -139 -10 -17
-22 -19 -108 -19 -63 0 -102 -4 -110 -12 -7 -7 -12 -40 -12 -78 0 -38 5 -71
12 -78 8 -8 47 -12 108 -12 61 0 100 -4 108 -12 9 -9 12 -114 12 -413 0 -348
2 -408 17 -451 33 -97 96 -169 195 -221 50 -25 61 -27 183 -28 128 0 132 1
198 33 56 28 67 37 67 58 0 30 -46 123 -64 130 -7 3 -36 -4 -65 -16 -35 -13
-74 -20 -119 -20 -106 1 -157 39 -182 135 -18 73 -28 769 -10 790 10 12 41 15
172 15 91 0 168 4 179 10 16 9 19 22 19 85 0 40 -5 77 -10 80 -6 4 -83 6 -170
6 -97 -1 -168 3 -180 9 -18 10 -20 21 -20 133 0 82 -4 127 -12 135 -13 13
-179 17 -191 5z"/>
<path d="M11572 4218 c-9 -9 -12 -190 -12 -754 0 -698 1 -742 18 -745 9 -2 56
-3 105 -1 l87 3 0 749 c0 673 -2 748 -16 754 -29 11 -169 7 -182 -6z"/>
<path d="M3420 4034 c-176 -26 -205 -35 -312 -96 -134 -78 -237 -218 -279
-383 -26 -97 -25 -273 0 -378 43 -175 176 -334 338 -403 120 -50 163 -58 328
-58 135 1 169 4 220 21 95 33 135 52 194 93 73 49 94 74 87 98 -7 22 -119 132
-135 132 -5 0 -24 -20 -41 -45 -55 -80 -155 -116 -320 -116 -117 0 -172 12
-256 55 -86 44 -175 154 -209 257 -31 94 -45 89 267 89 349 -1 757 8 770 17 7
4 9 43 5 112 -7 112 -25 178 -78 282 -29 59 -142 188 -184 212 -103 57 -153
78 -212 91 -81 18 -149 25 -183 20z m115 -198 c135 -25 225 -86 285 -192 41
-70 65 -153 50 -168 -16 -16 -826 -22 -845 -6 -33 27 28 182 99 252 57 58 137
100 216 114 85 15 111 15 195 0z"/>
<path d="M5825 4033 c-446 -3 -491 -5 -502 -20 -16 -22 -17 -135 -1 -151 9 -9
77 -12 243 -12 319 0 535 -10 535 -25 0 -6 -33 -50 -72 -97 -40 -47 -95 -113
-123 -148 -57 -71 -206 -250 -378 -454 -228 -271 -227 -269 -227 -314 0 -22 4
-52 10 -66 l10 -26 542 2 543 3 0 85 0 85 -395 3 c-217 1 -398 6 -402 10 -7 7
41 68 250 321 21 25 53 63 72 86 79 95 209 254 253 310 26 33 77 98 114 144
111 136 113 140 113 196 0 61 -12 76 -59 73 -20 -2 -256 -4 -526 -5z"/>
<path d="M6975 4020 c-108 -20 -182 -46 -254 -88 -51 -29 -111 -74 -111 -83 0
-3 25 -38 56 -78 l56 -72 51 37 c27 20 80 50 116 67 65 30 69 31 216 31 134 0
155 -3 197 -22 110 -52 161 -127 182 -267 11 -72 17 -70 -271 -71 -219 0 -267
-3 -318 -19 -146 -44 -223 -99 -275 -197 -32 -59 -34 -69 -34 -158 0 -86 3
-101 33 -162 65 -136 175 -205 361 -228 178 -21 361 30 454 129 45 47 56 41
56 -28 0 -82 11 -91 109 -91 46 0 82 5 89 12 9 9 12 117 12 428 0 366 -3 425
-19 496 -29 129 -85 215 -186 284 -125 86 -328 117 -520 80z m513 -758 c2 -29
-4 -80 -13 -114 -38 -150 -136 -231 -317 -259 -174 -28 -326 41 -359 163 -28
104 31 202 151 249 37 14 461 29 510 18 22 -5 25 -11 28 -57z"/>
<path d="M4463 4020 l-23 -9 0 -640 c0 -573 2 -639 16 -645 29 -11 169 -7 182
6 9 9 12 100 12 349 0 386 8 452 64 553 70 125 164 182 321 195 l80 6 3 88 3
87 -28 11 c-21 8 -51 8 -113 -1 -112 -16 -195 -57 -260 -127 -27 -29 -53 -53
-58 -53 -11 0 -22 59 -22 122 0 26 -5 50 -11 54 -19 11 -142 15 -166 4z"/>
</g>
</svg>
